<?xml version="1.0" encoding="UTF-8" standalone="no"?>
<!DOCTYPE svg PUBLIC "-//W3C//DTD SVG 1.1//EN" "http://www.w3.org/Graphics/SVG/1.1/DTD/svg11.dtd">
<svg width="100%" height="100%" viewBox="0 0 267 267" version="1.1" xmlns="http://www.w3.org/2000/svg" xmlns:xlink="http://www.w3.org/1999/xlink" xml:space="preserve" xmlns:serif="http://www.serif.com/" style="fill-rule:evenodd;clip-rule:evenodd;stroke-linejoin:round;stroke-miterlimit:2;">
    <g transform="matrix(4.166667,0,0,4.166667,0,0)">
        <g>
            <g transform="matrix(1,0,0,1,0.451722,-0.075287)">
                <rect x="-640" y="-128" width="1280" height="800" style="fill:none;stroke:black;stroke-width:1px;"/>
            </g>
            <g transform="matrix(1,0,0,1,-85.149627,84.321469)">
                <rect x="-640" y="-128" width="1280" height="800" style="fill:none;stroke:black;stroke-width:1px;"/>
            </g>
            <path d="M39.94,44.142C36.553,46.649 47.085,35.879 44.088,39.973C44.163,39.967 44.024,40.194 43.558,40.763C43.558,40.763 51.562,48.713 55.491,52.759C56.855,54.234 54.394,57.178 52.722,55.641C49.164,52.189 40.745,43.61 40.732,43.596L39.94,44.142Z"/>
            <path d="M28.179,48.162L27.922,48.162C20.345,48.089 13.115,43.383 9.914,36.571C7.441,31.31 7.446,24.969 9.914,19.717C13.138,12.857 20.488,8.126 28.051,8.126C38.005,8.126 46.567,15.194 47.907,25.609C48.689,31.687 46.447,38.053 42.093,42.356C38.427,45.979 33.329,48.112 28.179,48.162Z"/>
            <g transform="matrix(0.501241,0,0,0.501241,10.289349,5.491568)">
                <rect x="21.951" y="19.313" width="15.17" height="15.17" style="fill:rgb(235,235,235);stroke:black;stroke-width:2px;stroke-linecap:round;stroke-miterlimit:1.5;"/>
            </g>
            <g transform="matrix(0.501241,0,0,0.501241,-7.553677,33.950063)">
                <rect x="21.951" y="19.313" width="15.17" height="15.17" style="fill:rgb(235,235,235);stroke:black;stroke-width:2px;stroke-linecap:round;stroke-miterlimit:1.5;"/>
            </g>
            <g transform="matrix(0.657568,0,0,0.657568,16.813054,12.862081)">
                <rect x="21.951" y="19.313" width="15.17" height="15.17" style="fill:rgb(235,235,235);stroke:black;stroke-width:1.52px;stroke-linecap:round;stroke-miterlimit:1.5;"/>
            </g>
            <g transform="matrix(0.342432,0,0,0.342432,11.177912,26.326324)">
                <rect x="21.951" y="19.313" width="15.17" height="15.17" style="fill:rgb(235,235,235);stroke:black;stroke-width:2.92px;stroke-linecap:round;stroke-miterlimit:1.5;"/>
            </g>
            <g transform="matrix(0.424318,0,0,0.424318,33.397022,-1.831428)">
                <rect x="21.951" y="19.313" width="15.17" height="15.17" style="fill:rgb(235,235,235);stroke:black;stroke-width:2.36px;stroke-linecap:round;stroke-miterlimit:1.5;"/>
            </g>
            <g transform="matrix(0.424318,0,0,0.424318,44.163067,2.911655)">
                <rect x="21.951" y="19.313" width="15.17" height="15.17" style="fill:rgb(235,235,235);stroke:black;stroke-width:2.36px;stroke-linecap:round;stroke-miterlimit:1.5;"/>
            </g>
            <g transform="matrix(0.188586,0,0,0.188586,43.578089,13.901301)">
                <rect x="21.951" y="19.313" width="15.17" height="15.17" style="fill:rgb(235,235,235);stroke:black;stroke-width:5.3px;stroke-linecap:round;stroke-miterlimit:1.5;"/>
            </g>
            <g transform="matrix(0.188586,0,0,0.188586,10.752946,43.639676)">
                <rect x="21.951" y="19.313" width="15.17" height="15.17" style="fill:rgb(235,235,235);stroke:black;stroke-width:5.3px;stroke-linecap:round;stroke-miterlimit:1.5;"/>
            </g>
        </g>
        <g id="Icons">
        </g>
    </g>
</svg>
